<svg width="544" height="198" viewBox="0 0 544 198" fill="none" xmlns="http://www.w3.org/2000/svg">
<g clip-path="url(#clip0_170_808)">
<path d="M212.444 94.9989L168.756 14.7916C168.127 13.6409 167.2 12.6814 166.073 12.0141C164.945 11.3468 163.658 10.9964 162.348 11H60.4092C59.0994 10.9964 57.8128 11.3468 56.6851 12.0141C55.5574 12.6814 54.6304 13.6409 54.0016 14.7916L10.3134 94.9989C9.67433 96.1073 9.33789 97.3647 9.33789 98.6447C9.33789 99.9246 9.67433 101.182 10.3134 102.29L54.0016 182.498C54.6676 183.594 55.6108 184.495 56.7359 185.11C57.861 185.724 59.1281 186.031 60.4092 185.998H162.348C163.658 186.001 164.945 185.651 166.073 184.984C167.2 184.316 168.127 183.357 168.756 182.206L212.444 101.999C213.031 100.926 213.338 99.7221 213.338 98.4988C213.338 97.2756 213.031 96.072 212.444 94.9989ZM161.839 32.8747L193.804 91.2073H124.631L161.839 32.8747ZM111.379 84.9365L73.6613 25.5832H149.096L111.379 84.9365ZM60.9189 32.8747L98.1267 91.2073H28.9537L60.9189 32.8747ZM28.9537 105.79H98.1267L60.9189 164.123L28.9537 105.79ZM111.379 112.061L149.096 171.414H73.6613L111.379 112.061ZM161.839 164.123L124.631 105.79H193.804L161.839 164.123Z" fill="#FF8C00"/>
</g>
<path d="M533.182 11H180V186H358.531" fill="url(#paint0_linear_170_808)"/>
<path d="M354.65 45.9998V128.444L324.377 45.9998H294.105L268.489 114.444C265.384 97.3332 247.531 91.1109 233.559 86.4443C224.245 83.3332 214.154 79.4443 214.154 73.9998C214.154 70.1109 219.587 66.2221 229.678 66.9998C236.664 67.7776 242.874 67.7776 255.294 73.9998L267.713 52.9998C256.07 46.7776 240.545 43.6665 228.126 43.6665C213.378 43.6665 200.958 48.3332 193.196 56.1109C187.762 61.5554 185.433 68.5554 184.657 76.3332C184.657 87.2221 188.538 94.9998 197.077 101.222C204.063 105.889 212.601 109 220.364 111.333C230.454 114.444 238.217 117.555 238.217 123C237.44 130 229.678 131.555 224.245 131.555C214.93 132.333 207.168 130.778 195.524 123.778L184.657 144.778C196.301 151.778 208.72 154.889 223.468 154.889C233.559 154.889 249.084 151.778 257.622 144L256.07 151H285.566L291 137.778C302.643 140.889 315.839 141.667 327.482 137.778L331.364 151H384.147V119.889H395.014C422.182 119.889 438.482 106.667 438.482 83.3332C438.482 56.8887 422.958 45.9998 389.58 45.9998H354.65ZM297.986 114.444L308.853 79.4443H309.629L320.496 114.444C312.734 116.778 304.972 116.778 297.986 114.444ZM384.147 96.5554V68.5554H391.909C402 68.5554 409.762 71.6665 409.762 81.7776C409.762 92.6665 402 96.5554 391.909 96.5554H384.147Z" fill="white"/>
<defs>
<linearGradient id="paint0_linear_170_808" x1="180" y1="11" x2="180" y2="186" gradientUnits="userSpaceOnUse">
<stop stop-color="#00AAEE"/>
<stop offset="1" stop-color="#0055AA"/>
</linearGradient>
<clipPath id="clip0_170_808">
<rect width="151" height="175" fill="white" transform="translate(9 11)"/>
</clipPath>
</defs>
</svg>
