<svg width="583" height="583" viewBox="0 0 583 583" fill="none" xmlns="http://www.w3.org/2000/svg">
<g clip-path="url(#clip0_170_797)">
<path d="M232.444 287.999L188.756 207.792C188.127 206.641 187.2 205.681 186.073 205.014C184.945 204.347 183.658 203.996 182.348 204H80.4092C79.0994 203.996 77.8128 204.347 76.6851 205.014C75.5574 205.681 74.6304 206.641 74.0016 207.792L30.3134 287.999C29.6743 289.107 29.3379 290.365 29.3379 291.645C29.3379 292.925 29.6743 294.182 30.3134 295.29L74.0016 375.498C74.6676 376.594 75.6108 377.495 76.7359 378.11C77.861 378.724 79.1281 379.031 80.4092 378.998H182.348C183.658 379.001 184.945 378.651 186.073 377.984C187.2 377.316 188.127 376.357 188.756 375.206L232.444 294.999C233.031 293.926 233.338 292.722 233.338 291.499C233.338 290.276 233.031 289.072 232.444 287.999ZM181.839 225.875L213.804 284.207H144.631L181.839 225.875ZM131.379 277.937L93.6613 218.583H169.096L131.379 277.937ZM80.9189 225.875L118.127 284.207H48.9537L80.9189 225.875ZM48.9537 298.79H118.127L80.9189 357.123L48.9537 298.79ZM131.379 305.061L169.096 364.414H93.6613L131.379 305.061ZM181.839 357.123L144.631 298.79H213.804L181.839 357.123Z" fill="#FF8C00"/>
</g>
<path d="M553.182 204H200V379H378.531" fill="url(#paint0_linear_170_797)"/>
<path d="M374.65 239V321.444L344.377 239H314.105L288.489 307.444C285.384 290.333 267.531 284.111 253.559 279.444C244.245 276.333 234.154 272.444 234.154 267C234.154 263.111 239.587 259.222 249.678 260C256.664 260.778 262.874 260.778 275.294 267L287.713 246C276.07 239.778 260.545 236.667 248.126 236.667C233.378 236.667 220.958 241.333 213.196 249.111C207.762 254.555 205.433 261.555 204.657 269.333C204.657 280.222 208.538 288 217.077 294.222C224.063 298.889 232.601 302 240.364 304.333C250.454 307.444 258.217 310.555 258.217 316C257.44 323 249.678 324.555 244.245 324.555C234.93 325.333 227.168 323.778 215.524 316.778L204.657 337.778C216.301 344.778 228.72 347.889 243.468 347.889C253.559 347.889 269.084 344.778 277.622 337L276.07 344H305.566L311 330.778C322.643 333.889 335.839 334.667 347.482 330.778L351.364 344H404.147V312.889H415.014C442.182 312.889 458.482 299.667 458.482 276.333C458.482 249.889 442.958 239 409.58 239H374.65ZM317.986 307.444L328.853 272.444H329.629L340.496 307.444C332.734 309.778 324.972 309.778 317.986 307.444ZM404.147 289.555V261.555H411.909C422 261.555 429.762 264.667 429.762 274.778C429.762 285.667 422 289.555 411.909 289.555H404.147Z" fill="white"/>
<defs>
<linearGradient id="paint0_linear_170_797" x1="200" y1="204" x2="200" y2="379" gradientUnits="userSpaceOnUse">
<stop stop-color="#00AAEE"/>
<stop offset="1" stop-color="#0055AA"/>
</linearGradient>
<clipPath id="clip0_170_797">
<rect width="151" height="175" fill="white" transform="translate(29 204)"/>
</clipPath>
</defs>
</svg>
